<mxfile host="app.diagrams.net" agent="Mozilla/5.0 (Macintosh; Intel Mac OS X 10_15_7) AppleWebKit/537.36 (KHTML, like Gecko) Chrome/129.0.0.0 Safari/537.36" version="24.8.4">
  <diagram name="Страница — 1" id="CxeYqZlNNohPFbJ6z3kX">
    <mxGraphModel dx="3392" dy="2704" grid="1" gridSize="10" guides="1" tooltips="1" connect="1" arrows="1" fold="1" page="1" pageScale="1" pageWidth="827" pageHeight="1169" math="0" shadow="0">
      <root>
        <mxCell id="0" />
        <mxCell id="1" parent="0" />
        <mxCell id="gvG71BD477cDVHek1oMf-7" value="" style="rounded=0;whiteSpace=wrap;html=1;" vertex="1" parent="1">
          <mxGeometry x="-300" y="-20" width="1360" height="840" as="geometry" />
        </mxCell>
        <mxCell id="gvG71BD477cDVHek1oMf-4" value="" style="rounded=0;whiteSpace=wrap;html=1;" vertex="1" parent="1">
          <mxGeometry x="620" y="330" width="280" height="340" as="geometry" />
        </mxCell>
        <mxCell id="gvG71BD477cDVHek1oMf-2" value="" style="rounded=0;whiteSpace=wrap;html=1;" vertex="1" parent="1">
          <mxGeometry x="-230" y="320" width="280" height="340" as="geometry" />
        </mxCell>
        <mxCell id="WAUxL1C-aB_4WvaoG28v-1" value="" style="aspect=fixed;sketch=0;html=1;dashed=0;whitespace=wrap;verticalLabelPosition=bottom;verticalAlign=top;fillColor=#2875E2;strokeColor=#ffffff;points=[[0.005,0.63,0],[0.1,0.2,0],[0.9,0.2,0],[0.5,0,0],[0.995,0.63,0],[0.72,0.99,0],[0.5,1,0],[0.28,0.99,0]];shape=mxgraph.kubernetes.icon2;kubernetesLabel=1;prIcon=pod" parent="1" vertex="1">
          <mxGeometry x="-167.09" y="400" width="154.17" height="148" as="geometry" />
        </mxCell>
        <mxCell id="WAUxL1C-aB_4WvaoG28v-2" value="" style="aspect=fixed;sketch=0;html=1;dashed=0;whitespace=wrap;verticalLabelPosition=bottom;verticalAlign=top;fillColor=#2875E2;strokeColor=#ffffff;points=[[0.005,0.63,0],[0.1,0.2,0],[0.9,0.2,0],[0.5,0,0],[0.995,0.63,0],[0.72,0.99,0],[0.5,1,0],[0.28,0.99,0]];shape=mxgraph.kubernetes.icon2;kubernetesLabel=1;prIcon=svc" parent="1" vertex="1">
          <mxGeometry x="275.21000000000004" y="20" width="143.75" height="138" as="geometry" />
        </mxCell>
        <mxCell id="WAUxL1C-aB_4WvaoG28v-3" value="" style="endArrow=classic;html=1;rounded=0;exitX=0.5;exitY=1;exitDx=0;exitDy=0;exitPerimeter=0;entryX=0.5;entryY=0;entryDx=0;entryDy=0;entryPerimeter=0;" parent="1" source="WAUxL1C-aB_4WvaoG28v-2" target="WAUxL1C-aB_4WvaoG28v-1" edge="1">
          <mxGeometry width="50" height="50" relative="1" as="geometry">
            <mxPoint x="410" y="370" as="sourcePoint" />
            <mxPoint x="460" y="320" as="targetPoint" />
          </mxGeometry>
        </mxCell>
        <mxCell id="WAUxL1C-aB_4WvaoG28v-11" value="&lt;font style=&quot;font-size: 17px;&quot;&gt;Makes pods accessible&lt;/font&gt;" style="edgeLabel;html=1;align=center;verticalAlign=middle;resizable=0;points=[];" parent="WAUxL1C-aB_4WvaoG28v-3" vertex="1" connectable="0">
          <mxGeometry x="-0.2886" relative="1" as="geometry">
            <mxPoint x="142" y="2" as="offset" />
          </mxGeometry>
        </mxCell>
        <mxCell id="WAUxL1C-aB_4WvaoG28v-5" value="&lt;div style=&quot;font-size: 17px;&quot;&gt;zone=&quot;africa&quot;&lt;/div&gt;" style="text;html=1;align=center;verticalAlign=middle;resizable=0;points=[];autosize=1;strokeColor=none;fillColor=none;" parent="1" vertex="1">
          <mxGeometry x="-150" y="605" width="120" height="30" as="geometry" />
        </mxCell>
        <mxCell id="WAUxL1C-aB_4WvaoG28v-6" value="" style="endArrow=classic;html=1;rounded=0;exitX=0.507;exitY=0.98;exitDx=0;exitDy=0;exitPerimeter=0;entryX=0.5;entryY=0;entryDx=0;entryDy=0;entryPerimeter=0;" parent="1" source="WAUxL1C-aB_4WvaoG28v-7" target="WAUxL1C-aB_4WvaoG28v-2" edge="1">
          <mxGeometry width="50" height="50" relative="1" as="geometry">
            <mxPoint x="347" y="-110" as="sourcePoint" />
            <mxPoint x="350" y="-270" as="targetPoint" />
          </mxGeometry>
        </mxCell>
        <mxCell id="WAUxL1C-aB_4WvaoG28v-9" value="&lt;span style=&quot;font-size: 17px; background-color: rgb(251, 251, 251);&quot;&gt;port-forward 3000&lt;/span&gt;" style="edgeLabel;html=1;align=center;verticalAlign=middle;resizable=0;points=[];" parent="WAUxL1C-aB_4WvaoG28v-6" vertex="1" connectable="0">
          <mxGeometry x="-0.287" y="1" relative="1" as="geometry">
            <mxPoint as="offset" />
          </mxGeometry>
        </mxCell>
        <mxCell id="WAUxL1C-aB_4WvaoG28v-7" value="&lt;font style=&quot;font-size: 17px;&quot;&gt;Requests&amp;nbsp;&lt;/font&gt;" style="ellipse;shape=cloud;whiteSpace=wrap;html=1;" parent="1" vertex="1">
          <mxGeometry x="232.09" y="-639" width="230" height="110" as="geometry" />
        </mxCell>
        <mxCell id="-RmHIkZGcY0uF7QK0LFG-2" value="" style="aspect=fixed;sketch=0;html=1;dashed=0;whitespace=wrap;verticalLabelPosition=bottom;verticalAlign=top;fillColor=#2875E2;strokeColor=#ffffff;points=[[0.005,0.63,0],[0.1,0.2,0],[0.9,0.2,0],[0.5,0,0],[0.995,0.63,0],[0.72,0.99,0],[0.5,1,0],[0.28,0.99,0]];shape=mxgraph.kubernetes.icon2;kubernetesLabel=1;prIcon=pod" parent="1" vertex="1">
          <mxGeometry x="700" y="410" width="154.17" height="148" as="geometry" />
        </mxCell>
        <mxCell id="-RmHIkZGcY0uF7QK0LFG-3" value="" style="endArrow=classic;html=1;rounded=0;exitX=0.5;exitY=1;exitDx=0;exitDy=0;exitPerimeter=0;entryX=0.5;entryY=0;entryDx=0;entryDy=0;entryPerimeter=0;" parent="1" source="WAUxL1C-aB_4WvaoG28v-2" target="-RmHIkZGcY0uF7QK0LFG-2" edge="1">
          <mxGeometry width="50" height="50" relative="1" as="geometry">
            <mxPoint x="550" y="370" as="sourcePoint" />
            <mxPoint x="600" y="320" as="targetPoint" />
          </mxGeometry>
        </mxCell>
        <mxCell id="-RmHIkZGcY0uF7QK0LFG-4" value="&lt;span style=&quot;font-size: 17px;&quot;&gt;zone=&quot;europe&quot;&lt;/span&gt;" style="text;html=1;align=center;verticalAlign=middle;resizable=0;points=[];autosize=1;strokeColor=none;fillColor=none;" parent="1" vertex="1">
          <mxGeometry x="690" y="585" width="140" height="30" as="geometry" />
        </mxCell>
        <mxCell id="gvG71BD477cDVHek1oMf-3" value="&lt;font style=&quot;font-size: 17px;&quot;&gt;Node 1&lt;/font&gt;" style="text;html=1;align=center;verticalAlign=middle;resizable=0;points=[];autosize=1;strokeColor=none;fillColor=none;" vertex="1" parent="1">
          <mxGeometry x="-130" y="340" width="80" height="30" as="geometry" />
        </mxCell>
        <mxCell id="gvG71BD477cDVHek1oMf-5" value="&lt;font style=&quot;font-size: 17px;&quot;&gt;Node 2&lt;/font&gt;" style="text;html=1;align=center;verticalAlign=middle;resizable=0;points=[];autosize=1;strokeColor=none;fillColor=none;" vertex="1" parent="1">
          <mxGeometry x="720" y="350" width="80" height="30" as="geometry" />
        </mxCell>
        <mxCell id="gvG71BD477cDVHek1oMf-8" value="&lt;font style=&quot;font-size: 28px;&quot;&gt;Cluster&lt;/font&gt;" style="text;html=1;align=center;verticalAlign=middle;whiteSpace=wrap;rounded=0;" vertex="1" parent="1">
          <mxGeometry x="440" width="60" height="30" as="geometry" />
        </mxCell>
      </root>
    </mxGraphModel>
  </diagram>
</mxfile>
